<?xml version="1.0" encoding="UTF-8" standalone="no"?>
<!-- Created with Inkscape (http://www.inkscape.org/) -->
<!DOCTYPE svg PUBLIC "-//W3C//DTD SVG 1.1//EN" "http://www.w3.org/Graphics/SVG/1.1/DTD/svg11.dtd">
<svg
   xmlns:dc="http://purl.org/dc/elements/1.1/"
   xmlns:cc="http://creativecommons.org/ns#"
   xmlns:rdf="http://www.w3.org/1999/02/22-rdf-syntax-ns#"
   xmlns:svg="http://www.w3.org/2000/svg"
   xmlns="http://www.w3.org/2000/svg"
   version="1.1"
   width="400"
   height="400"
   id="svg2985"
   xml:space="preserve"><metadata
     id="metadata2991"><rdf:RDF><cc:Work
         rdf:about=""><dc:format>image/svg+xml</dc:format><dc:type
           rdf:resource="http://purl.org/dc/dcmitype/StillImage" /><dc:title></dc:title></cc:Work></rdf:RDF></metadata><defs
     id="defs2989" /><g
     transform="matrix(1.25,0,0,-1.25,0,400.00002)"
     id="g2993"><g
       transform="matrix(10.841323,0,0,10.841323,-5481.6605,-4738.9247)"
       id="g6975"
       style="fill:#00408a;fill-opacity:1"><path
         d="m 518.2787,465.86857 0.408,-1.917 c 0.127,-0.597 0.213,-1.146 -0.53,-1.304 -0.743,-0.158 -0.888,0.379 -1.015,0.975 l -0.408,1.917 -0.758,-0.161 0.471,-2.21 c 0.2,-0.939 0.971,-1.251 1.827,-1.069 0.855,0.182 1.433,0.78 1.233,1.719 l -0.47,2.211 -0.758,-0.161 z"
         id="path4141"
         style="fill:#00408a;fill-opacity:1;fill-rule:nonzero;stroke:none" /><path
         d="m 514.0337,460.52767 -0.149,0.797 1.238,0.715 0.608,-0.532 0.675,0.39 -2.892,2.498 -0.797,-0.46 0.676,-3.778 0.641,0.37 z m -0.276,1.417 -0.312,1.598 0.009,0.005 1.199,-1.086 -0.896,-0.517 z"
         id="path4145"
         style="fill:#00408a;fill-opacity:1;fill-rule:evenodd;stroke:none" /><path
         d="m 513.1703,459.72897 -2.726,2.367 -0.475,-0.547 2.137,-1.855 10e-4,-0.015 -3.046,0.825 -0.754,-0.867 2.726,-2.368 0.475,0.547 -2.258,1.961 -10e-4,0.014 3.2,-0.892 0.721,0.83 z"
         id="path4149"
         style="fill:#00408a;fill-opacity:1;fill-rule:nonzero;stroke:none" /><path
         d="m 510.6096,455.45277 c 0.268,1.164 -0.405,1.873 -1.443,2.112 -1.038,0.24 -1.953,-0.103 -2.222,-1.267 -0.268,-1.164 0.405,-1.874 1.443,-2.113 1.038,-0.239 1.954,0.104 2.222,1.268 m -3.119,0.719 c 0.172,0.745 0.887,0.729 1.491,0.59 0.604,-0.139 1.254,-0.438 1.082,-1.183 -0.172,-0.745 -0.886,-0.729 -1.491,-0.59 -0.604,0.139 -1.254,0.438 -1.082,1.183"
         id="path4153"
         style="fill:#00408a;fill-opacity:1;fill-rule:evenodd;stroke:none" /><path
         d="m 506.9646,451.16287 0,0.4 c -0.01,0.92 0.63,1.055 1.205,1.055 0.575,0 1.215,-0.135 1.205,-1.054 l 0.001,-0.4 -2.411,-10e-4 z m 3.011,-0.774 0,1.23 c 0.009,1.125 -0.551,1.824 -1.807,1.824 -1.255,-0.001 -1.815,-0.701 -1.804,-1.825 l 0,-1.23 3.611,10e-4 z"
         id="path4157"
         style="fill:#00408a;fill-opacity:1;fill-rule:evenodd;stroke:none" /><path
         d="m 524.5854,465.37377 -0.491,0.095 -0.437,-2.257 c -0.133,-0.606 -0.56,-0.864 -1.119,-0.756 -0.56,0.109 -0.859,0.509 -0.756,1.12 l 0.438,2.258 -0.491,0.095 -0.415,-2.14 c -0.191,-0.91 0.18,-1.568 1.142,-1.755 0.961,-0.187 1.552,0.284 1.714,1.2 l 0.415,2.14 z"
         id="path4161"
         style="fill:#00408a;fill-opacity:1;fill-rule:nonzero;stroke:none" /><path
         d="m 528.4769,463.38517 -1.581,-2.531 -0.008,0.005 0.088,3.464 -0.58,0.363 -1.912,-3.062 0.378,-0.235 1.622,2.599 0.009,-0.006 -0.076,-3.566 0.526,-0.328 1.911,3.061 -0.377,0.236 z"
         id="path4165"
         style="fill:#00408a;fill-opacity:1;fill-rule:nonzero;stroke:none" /><path
         d="m 528.2198,458.77257 2.638,2.462 -0.341,0.365 -2.638,-2.461 0.341,-0.366 z"
         id="path4169"
         style="fill:#00408a;fill-opacity:1;fill-rule:nonzero;stroke:none" /><path
         d="m 533.2279,457.64387 -3.22,-0.551 -0.005,0.009 2.176,2.435 -0.242,0.438 -2.533,-2.874 0.266,-0.481 3.8,0.587 -0.242,0.437 z"
         id="path4173"
         style="fill:#00408a;fill-opacity:1;fill-rule:nonzero;stroke:none" /><path
         d="m 530.7846,452.94407 0.42,0.089 -0.374,1.766 1.168,0.248 0.348,-1.643 0.421,0.09 -0.349,1.642 1.1,0.234 0.366,-1.726 0.42,0.09 -0.47,2.215 -3.528,-0.751 0.478,-2.254 z"
         id="path4177"
         style="fill:#00408a;fill-opacity:1;fill-rule:nonzero;stroke:none" /><path
         d="m 533.9423,451.33327 -0.058,-0.823 c -0.064,-0.552 -0.322,-0.659 -0.606,-0.639 -0.284,0.02 -0.525,0.162 -0.511,0.717 l 0.058,0.823 1.117,-0.078 z m -1.595,-0.6 c -0.029,-0.199 -0.028,-0.399 -0.203,-0.532 -0.191,-0.152 -0.485,-0.132 -0.812,-0.149 -0.216,-0.01 -0.455,-0.054 -0.672,-0.083 l -0.038,-0.534 c 0.348,0.106 0.735,0.119 1.098,0.149 0.407,0.027 0.641,0.07 0.776,0.497 l 0.01,-0.001 c 0.07,-0.426 0.386,-0.708 0.82,-0.739 0.713,-0.049 0.946,0.561 0.988,1.164 l 0.091,1.287 -3.599,0.251 -0.035,-0.499 1.625,-0.113 -0.049,-0.698 z"
         id="path4181"
         style="fill:#00408a;fill-opacity:1;fill-rule:evenodd;stroke:none" /><path
         d="m 531.4325,448.62447 c -0.725,0.36 -1.248,-0.003 -1.567,-0.687 -0.309,-0.661 -0.357,-1.449 0.386,-1.796 0.824,-0.384 1.207,0.436 1.683,0.947 0.224,0.243 0.369,0.496 0.74,0.322 0.39,-0.181 0.302,-0.676 0.152,-0.997 -0.152,-0.326 -0.423,-0.575 -0.798,-0.422 l -0.222,-0.476 c 0.634,-0.296 1.139,0.136 1.399,0.693 0.286,0.612 0.325,1.382 -0.386,1.714 -0.733,0.342 -1.274,-0.498 -1.644,-0.982 -0.181,-0.246 -0.435,-0.448 -0.752,-0.3 -0.457,0.213 -0.355,0.717 -0.181,1.088 0.205,0.44 0.502,0.627 0.968,0.42 l 0.222,0.476 z"
         id="path4185"
         style="fill:#00408a;fill-opacity:1;fill-rule:nonzero;stroke:none" /><path
         d="m 528.5486,445.45107 2.919,-2.122 0.294,0.405 -2.919,2.121 -0.294,-0.404 z"
         id="path4189"
         style="fill:#00408a;fill-opacity:1;fill-rule:nonzero;stroke:none" /><path
         d="m 527.1851,444.02927 -0.383,-0.321 2.042,-2.436 -0.927,-0.778 0.276,-0.329 2.237,1.877 -0.276,0.329 -0.927,-0.777 -2.042,2.435 z"
         id="path4193"
         style="fill:#00408a;fill-opacity:1;fill-rule:nonzero;stroke:none" /><path
         d="m 525.7535,442.92737 0.043,-1.016 -1.519,-0.708 -0.75,0.687 -0.494,-0.23 2.847,-2.654 0.485,0.226 -0.145,3.913 -0.467,-0.218 z m 0.181,-3.35 -1.33,1.304 1.219,0.568 0.111,-1.872 z"
         id="path4197"
         style="fill:#00408a;fill-opacity:1;fill-rule:evenodd;stroke:none" /><path
         d="m 526.5181,438.85327 c 0,0.157 0.128,0.285 0.285,0.285 0.158,0 0.285,-0.128 0.285,-0.285 0,-0.157 -0.127,-0.285 -0.285,-0.285 -0.157,0 -0.285,0.128 -0.285,0.285"
         id="path4201"
         style="fill:#00408a;fill-opacity:1;fill-rule:nonzero;stroke:none" /><path
         d="m 526.5181,438.85327 c 0,0.157 0.128,0.285 0.285,0.285 0.158,0 0.285,-0.128 0.285,-0.285 0,-0.157 -0.127,-0.285 -0.285,-0.285 -0.157,0 -0.285,0.128 -0.285,0.285 z"
         id="path4205"
         style="fill:#00408a;fill-opacity:1;stroke:#1b458f;stroke-width:0.021;stroke-linecap:butt;stroke-linejoin:miter;stroke-miterlimit:3.86400008;stroke-opacity:1;stroke-dasharray:none" /><path
         d="m 525.5422,438.41137 c 0,0.157 0.128,0.285 0.285,0.285 0.158,0 0.285,-0.128 0.285,-0.285 0,-0.157 -0.127,-0.285 -0.285,-0.285 -0.157,0 -0.285,0.128 -0.285,0.285"
         id="path4209"
         style="fill:#00408a;fill-opacity:1;fill-rule:nonzero;stroke:none" /><path
         d="m 525.5422,438.41137 c 0,0.157 0.128,0.285 0.285,0.285 0.158,0 0.285,-0.128 0.285,-0.285 0,-0.157 -0.127,-0.285 -0.285,-0.285 -0.157,0 -0.285,0.128 -0.285,0.285 z"
         id="path4213"
         style="fill:#00408a;fill-opacity:1;stroke:#1b458f;stroke-width:0.021;stroke-linecap:butt;stroke-linejoin:miter;stroke-miterlimit:3.86400008;stroke-opacity:1;stroke-dasharray:none" /><path
         d="m 522.0506,441.53277 -0.495,-0.07 0.441,-3.148 -1.199,-0.168 0.06,-0.426 2.892,0.406 -0.059,0.426 -1.199,-0.168 -0.441,3.148 z"
         id="path4217"
         style="fill:#00408a;fill-opacity:1;fill-rule:nonzero;stroke:none" /><path
         d="m 509.1602,447.94367 -0.154,0.425 -1.979,-0.721 0.155,-0.425 1.008,0.368 0.002,-0.006 -0.758,-1.055 0.192,-0.529 0.806,1.188 1.149,-0.404 -0.18,0.496 -1.094,0.346 -0.002,0.006 0.855,0.311 z"
         id="path4221"
         style="fill:#00408a;fill-opacity:1;fill-rule:nonzero;stroke:none" /><path
         d="m 510.0254,445.22057 0.238,-0.295 c 0.123,-0.155 0.135,-0.296 -0.01,-0.413 -0.145,-0.118 -0.295,-0.089 -0.422,0.063 l -0.239,0.294 0.433,0.351 z m -0.704,-0.571 0.3,-0.372 c 0.089,-0.119 -0.017,-0.242 -0.1,-0.325 -0.135,-0.135 -0.269,-0.27 -0.39,-0.417 l 0.313,-0.388 c 0.038,0.139 0.219,0.309 0.311,0.409 0.202,0.213 0.368,0.347 0.179,0.641 l 0.004,0.004 c 0.207,-0.167 0.459,-0.192 0.672,-0.019 0.333,0.27 0.191,0.631 -0.034,0.914 l -0.563,0.696 -1.636,-1.326 0.284,-0.351 0.66,0.534 z"
         id="path4225"
         style="fill:#00408a;fill-opacity:1;fill-rule:evenodd;stroke:none" /><path
         d="m 510.704,441.70477 1.121,-0.909 0.22,0.272 -0.77,0.624 0.354,0.438 0.698,-0.565 0.22,0.272 -0.698,0.565 0.31,0.383 0.745,-0.604 0.22,0.272 -1.096,0.888 -1.324,-1.636 z"
         id="path4229"
         style="fill:#00408a;fill-opacity:1;fill-rule:nonzero;stroke:none" /><path
         d="m 515.8952,440.43567 0.003,-0.008 -0.817,-1.606 0.376,-0.192 0.955,1.876 -0.637,0.325 -1.12,-1.147 -0.005,0.002 0.302,1.565 -0.66,0.336 -0.954,-1.876 0.376,-0.192 0.817,1.606 0.008,0.002 -0.323,-1.864 0.335,-0.171 1.344,1.344 z"
         id="path4233"
         style="fill:#00408a;fill-opacity:1;fill-rule:nonzero;stroke:none" /><path
         d="m 519.1034,439.31207 c 0.073,0.416 -0.201,0.69 -0.603,0.761 -0.425,0.075 -0.898,-0.058 -0.982,-0.532 -0.064,-0.367 0.309,-0.569 0.586,-0.692 0.17,-0.078 0.463,-0.147 0.42,-0.391 -0.039,-0.221 -0.284,-0.234 -0.462,-0.203 -0.233,0.041 -0.338,0.22 -0.28,0.446 l -0.454,0.08 c -0.106,-0.52 0.198,-0.763 0.671,-0.847 0.445,-0.078 0.925,0.021 1.015,0.535 0.073,0.416 -0.376,0.588 -0.678,0.724 -0.17,0.074 -0.367,0.136 -0.327,0.36 0.031,0.18 0.213,0.237 0.377,0.208 0.215,-0.038 0.309,-0.161 0.289,-0.373 l 0.428,-0.076 z"
         id="path4237"
         style="fill:#00408a;fill-opacity:1;fill-rule:nonzero;stroke:none" /><path
         d="m 523.176,458.92247 -0.718,0 -0.227,0.7 -0.235,-0.7 -0.747,0 0.602,-0.433 -0.234,-0.7 0.601,0.437 0.608,-0.437 -0.231,0.711 0.581,0.422 z m -2.747,2.488 c 5.247,0 9.501,-4.254 9.501,-9.501 0,-5.247 -4.254,-9.501 -9.501,-9.501 l 0,5.433 c 2.249,0 4.072,1.823 4.072,4.071 0,2.249 -1.823,4.072 -4.072,4.072 l 0,5.426 z"
         id="path4241"
         style="fill:#00408a;fill-opacity:1;fill-rule:nonzero;stroke:none" /><path
         d="m 516.5832,457.84167 -1.559,-1.133 0.573,1.806 0.595,-1.833 -1.559,1.133 1.95,0.027 z"
         id="path4245"
         style="fill:#00408a;fill-opacity:1;fill-rule:nonzero;stroke:none" /><path
         d="m 516.5832,457.84167 -1.559,-1.133 0.573,1.806 0.595,-1.833 -1.559,1.133 1.95,0.027 z"
         id="path4249"
         style="fill:#00408a;fill-opacity:1;stroke:#1b458f;stroke-width:0.021;stroke-linecap:butt;stroke-linejoin:miter;stroke-miterlimit:3.86400008;stroke-opacity:1;stroke-dasharray:none" /><path
         d="m 514.4956,455.49037 -1.559,-1.133 0.595,1.833 0.596,-1.833 -1.559,1.133 1.927,0 z"
         id="path4253"
         style="fill:#00408a;fill-opacity:1;fill-rule:nonzero;stroke:none" /><path
         d="m 514.4956,455.49037 -1.559,-1.133 0.595,1.833 0.596,-1.833 -1.559,1.133 1.927,0 z"
         id="path4257"
         style="fill:#00408a;fill-opacity:1;stroke:#1b458f;stroke-width:0.021;stroke-linecap:butt;stroke-linejoin:miter;stroke-miterlimit:3.86400008;stroke-opacity:1;stroke-dasharray:none" /><path
         d="m 513.6761,452.34317 -1.559,-1.133 0.595,1.833 0.596,-1.833 -1.559,1.133 1.927,0 z"
         id="path4261"
         style="fill:#00408a;fill-opacity:1;fill-rule:nonzero;stroke:none" /><path
         d="m 513.6761,452.34317 -1.559,-1.133 0.595,1.833 0.596,-1.833 -1.559,1.133 1.927,0 z"
         id="path4265"
         style="fill:#00408a;fill-opacity:1;stroke:#1b458f;stroke-width:0.021;stroke-linecap:butt;stroke-linejoin:miter;stroke-miterlimit:3.86400008;stroke-opacity:1;stroke-dasharray:none" /><path
         d="m 519.4403,458.90847 -1.559,-1.133 0.582,1.833 0.595,-1.833 -1.559,1.133 1.941,0 z"
         id="path4269"
         style="fill:#00408a;fill-opacity:1;fill-rule:nonzero;stroke:none" /><path
         d="m 519.4403,458.90847 -1.559,-1.133 0.582,1.833 0.595,-1.833 -1.559,1.133 1.941,0 z"
         id="path4273"
         style="fill:#00408a;fill-opacity:1;stroke:#1b458f;stroke-width:0.021;stroke-linecap:butt;stroke-linejoin:miter;stroke-miterlimit:3.86400008;stroke-opacity:1;stroke-dasharray:none" /><path
         d="m 514.3593,449.22597 -1.559,-1.133 0.595,1.833 0.596,-1.833 -1.559,1.133 1.927,0 z"
         id="path4277"
         style="fill:#00408a;fill-opacity:1;fill-rule:nonzero;stroke:none" /><path
         d="m 514.3593,449.22597 -1.559,-1.133 0.595,1.833 0.596,-1.833 -1.559,1.133 1.927,0 z"
         id="path4281"
         style="fill:#00408a;fill-opacity:1;stroke:#1b458f;stroke-width:0.021;stroke-linecap:butt;stroke-linejoin:miter;stroke-miterlimit:3.86400008;stroke-opacity:1;stroke-dasharray:none" /><path
         d="m 516.4143,446.64237 -1.559,-1.133 0.595,1.833 0.596,-1.833 -1.559,1.133 1.927,0 z"
         id="path4285"
         style="fill:#00408a;fill-opacity:1;fill-rule:nonzero;stroke:none" /><path
         d="m 516.4143,446.64237 -1.559,-1.133 0.595,1.833 0.596,-1.833 -1.559,1.133 1.927,0 z"
         id="path4289"
         style="fill:#00408a;fill-opacity:1;stroke:#1b458f;stroke-width:0.021;stroke-linecap:butt;stroke-linejoin:miter;stroke-miterlimit:3.86400008;stroke-opacity:1;stroke-dasharray:none" /></g></g></svg>